<svg xmlns="http://www.w3.org/2000/svg" viewBox="0 0 64 64">
  <defs>
    <radialGradient id="petal" cx="50%" cy="40%" r="60%">
      <stop offset="0%" stop-color="#ffd6e1"/>
      <stop offset="60%" stop-color="#f8a5bb"/>
      <stop offset="100%" stop-color="#f06f90"/>
    </radialGradient>
  </defs>
  <g transform="translate(32 32)">
    <g fill="url(#petal)" stroke="#e8567a" stroke-width="1.2" stroke-linejoin="round">
      <path d="M0 -22 C 7 -18 9 -10 4 -4 C 1 -1 -1 -1 -4 -4 C -9 -10 -7 -18 0 -22 Z"/>
      <path d="M0 -22 C 7 -18 9 -10 4 -4 C 1 -1 -1 -1 -4 -4 C -9 -10 -7 -18 0 -22 Z" transform="rotate(72)"/>
      <path d="M0 -22 C 7 -18 9 -10 4 -4 C 1 -1 -1 -1 -4 -4 C -9 -10 -7 -18 0 -22 Z" transform="rotate(144)"/>
      <path d="M0 -22 C 7 -18 9 -10 4 -4 C 1 -1 -1 -1 -4 -4 C -9 -10 -7 -18 0 -22 Z" transform="rotate(216)"/>
      <path d="M0 -22 C 7 -18 9 -10 4 -4 C 1 -1 -1 -1 -4 -4 C -9 -10 -7 -18 0 -22 Z" transform="rotate(288)"/>
    </g>
    <g stroke="#c9325a" stroke-width="1" stroke-linecap="round">
      <line x1="0" y1="0" x2="0" y2="-12"/>
      <line x1="0" y1="0" x2="11.4" y2="-3.7" transform="rotate(0)"/>
      <line x1="0" y1="0" x2="0" y2="-12" transform="rotate(72)"/>
      <line x1="0" y1="0" x2="0" y2="-12" transform="rotate(144)"/>
      <line x1="0" y1="0" x2="0" y2="-12" transform="rotate(216)"/>
      <line x1="0" y1="0" x2="0" y2="-12" transform="rotate(288)"/>
    </g>
    <circle r="2.5" fill="#fff3a0" stroke="#c9325a" stroke-width="0.8"/>
  </g>
</svg>
